# File created by Blade
# Date/Time:  Wed Apr 08 17:17:01 2015
# Frame Rate: 120.000 fps
#------------------------------------------------------
:FULLY-SPECIFIED
:DEGREES
1117
root 8.899269 37.546427 5.079774 158.398112 -49.201935 -141.359049
Spine 9.929391 -4.030112 0.936337
Head -1.812254 -3.778437 22.514314
LeftShoulder -6.962566 14.786480 19.769205
LeftArm 16.579187 31.384955 -73.930615
LeftForeArm 30.961485 -0.000000 27.458663
LeftHand -9.500453 -0.000000 -21.237686
LeftHandThumb1 -26.253704 0.000000 33.147579
RightShoulder -41.597950 -47.900887 32.316361
RightArm 46.859324 -18.181894 65.243233
RightForeArm 30.374110 0.000000 1.720435
RightHand -2.971564 0.000000 5.647431
RightHandThumb1 -24.326973 -0.000000 -32.862282
LeftUpLeg -18.541278 38.754794 12.490681
LeftLeg 19.681194 -0.000000 -0.000000
LeftFoot -17.527559 1.071622 -13.341516
LeftToeBase 13.578548 -0.000000 -0.000000
RightUpLeg 5.862038 -14.074830 -29.418585
RightLeg 142.531684 -0.000000 -0.000000
RightFoot 37.813231 8.881510 18.893517
RightToeBase 8.424345 -0.000000 -0.000000
1118
root 8.891566 37.542049 5.092969 158.495440 -49.244260 -141.372169
Spine 9.965513 -4.030531 0.962996
Head -1.991125 -3.781069 22.565190
LeftShoulder -6.977161 14.809050 19.775675
LeftArm 16.628260 31.353796 -73.860345
LeftForeArm 31.066994 0.000000 27.329173
LeftHand -9.453801 0.000000 -21.173889
LeftHandThumb1 -26.253704 0.000000 33.147579
RightShoulder -41.622505 -47.916059 32.356937
RightArm 46.880628 -18.190277 65.214922
RightForeArm 30.410499 -0.000000 1.721625
RightHand -2.982751 -0.000000 5.945127
RightHandThumb1 -24.326973 -0.000000 -32.862282
LeftUpLeg -18.731890 38.899868 12.347833
LeftLeg 19.789502 -0.000000 -0.000000
LeftFoot -17.616444 0.805925 -13.550719
LeftToeBase 14.053920 -0.000000 -0.000000
RightUpLeg 5.965814 -14.089149 -29.357078
RightLeg 142.496149 -0.000000 -0.000000
RightFoot 37.808110 8.863266 18.970836
RightToeBase 8.415432 -0.000000 -0.000000
1119
root 8.883671 37.536607 5.106616 158.631351 -49.267248 -141.416176
Spine 9.978797 -3.999484 0.979433
Head -2.140232 -3.835193 22.592235
LeftShoulder -6.943647 14.734997 19.814408
LeftArm 16.526031 31.288023 -73.898432
LeftForeArm 31.177537 0.000000 27.221552
LeftHand -9.415185 -0.000000 -21.372483
LeftHandThumb1 -26.253704 0.000000 33.147579
RightShoulder -41.605980 -47.913291 32.323790
RightArm 46.817488 -18.218179 65.263617
RightForeArm 30.448729 -0.000000 1.747246
RightHand -3.036077 -0.000000 5.480704
RightHandThumb1 -24.326973 -0.000000 -32.862282
LeftUpLeg -18.914300 39.045010 12.188441
LeftLeg 19.869249 -0.000000 -0.000000
LeftFoot -17.677117 0.595250 -13.698673
LeftToeBase 14.284153 -0.000000 -0.000000
RightUpLeg 6.049677 -14.080640 -29.310025
RightLeg 142.473347 -0.000000 -0.000000
RightFoot 37.813314 8.844407 18.984766
RightToeBase 8.458879 -0.000000 -0.000000
1120
root 8.875003 37.530714 5.122598 158.795769 -49.262758 -141.494089
Spine 9.993523 -3.942106 0.987065
Head -2.268094 -3.861640 22.609786
LeftShoulder -6.923247 14.724766 19.837447
LeftArm 16.530886 31.271078 -73.866809
LeftForeArm 31.164716 -0.000000 27.105967
LeftHand -9.438559 -0.000000 -21.385027
LeftHandThumb1 -26.253704 0.000000 33.147579
RightShoulder -41.683527 -47.954449 32.392036
RightArm 46.825008 -18.173183 65.283247
RightForeArm 30.321521 -0.000000 1.806042
RightHand -3.123693 0.000000 5.759150
RightHandThumb1 -24.326973 -0.000000 -32.862282
LeftUpLeg -19.071909 39.188144 12.026943
LeftLeg 19.927977 -0.000000 -0.000000
LeftFoot -17.697098 0.359649 -13.928860
LeftToeBase 14.344883 -0.000000 -0.000000
RightUpLeg 6.104622 -14.087124 -29.283530
RightLeg 142.471177 -0.000000 -0.000000
RightFoot 37.844947 8.934190 18.653704
RightToeBase 8.117560 -0.000000 -0.000000
1121
root 8.865782 37.526690 5.136235 158.954004 -49.264260 -141.566351
Spine 10.006706 -3.919975 0.977150
Head -2.364851 -3.852025 22.630913
LeftShoulder -6.955563 14.730473 19.845821
LeftArm 16.550954 31.243621 -73.816372
LeftForeArm 31.233535 -0.000000 26.994199
LeftHand -9.362298 -0.000000 -21.391046
LeftHandThumb1 -26.253704 0.000000 33.147579
RightShoulder -41.685431 -47.987772 32.405944
RightArm 46.785547 -18.175471 65.303965
RightForeArm 30.322858 -0.000000 1.841469
RightHand -3.027148 -0.000000 5.939028
RightHandThumb1 -24.326973 -0.000000 -32.862282
LeftUpLeg -19.222649 39.311226 11.873662
LeftLeg 19.982093 -0.000000 -0.000000
LeftFoot -17.756375 0.181871 -14.095687
LeftToeBase 14.621340 -0.000000 -0.000000
RightUpLeg 6.190750 -14.031135 -29.236836
RightLeg 142.445932 -0.000000 -0.000000
RightFoot 37.987533 8.930645 18.753053
RightToeBase 7.821071 -0.000000 -0.000000
